<?xml version="1.0" encoding="UTF-8"?>
<svg id="Layer_1" data-name="Layer 1" xmlns="http://www.w3.org/2000/svg" viewBox="0 0 90.632 39.113">
  <defs>
    <style>
      .cls-1 {
        fill: #fff;
        stroke-width: 0px;
      }
    </style>
  </defs>
  <path class="cls-1" d="M42.332,17.6c-2.3-1-3.9-1-4.9-2.1l-14.1,1.5c-3.8.3-4.7-.9-4.4-4.5v-1.8c.1-.2,0-.2,0,0l-.5,1.6c-1.1,3-1.9,5.2-7,6.5-1.2.3-1.5.4-2,.5-.2,0-.2.1,0,.1h2c2.3,0,3.7,1.7,3.5,4.5-.1,1.7-.2,2.8-.3,3.3,0,.133.033.133.1,0,.3-.9.8-1.9,1.6-3.5,1.8-3.7,3.7-4.3,6.7-5h.3c-1,4.8-3.8,17.4-11.2,18.6s-5-11.6-4.1-16.3C9.632,13,13.132,3.2,19.232,2.2c5.4-.9,5.7,6.6,4.5,13.9l7.5-.6C32.732,4.8,27.432-.9,19.532.4,11.232,1.7,3.032,10,.532,21.6c-2.2,10.1,2.6,18.6,11.2,17.4,8.9-1.2,16.9-10.4,19.2-21.8v-.3l1.6-.3c-.6,7.1,9,4.7,8.2,9.1-.2,1.3-1.3,2.6-3.4,3-3.5.6-5.4-1.1-5.3-3.7l-1,.2c-.6,2.2-.8,2.9-1.1,4.3,2.1,1.1,4.7,1.2,7.7.7,3.3-.5,6.5-2.5,7.4-6.4.7-2.9-.5-5.2-2.5-6.1,0,0-.2-.1-.2-.1Z"/>
  <path class="cls-1" d="M40.132,9.5c-3.2.5-6.2,2.2-7.4,5.8l4.2-.4c-.1-.3-.1-.6,0-1,.2-1.3,1.4-2.7,3.8-2.9,2.8-.3,4.3.8,4.2,3.5l1-.2,1.2-4.7c-1.5-.3-4.1-.5-6.9,0l-.1-.1Z"/>
  <path class="cls-1" d="M83.832,7.6c.2-1.4,1.1-5.2-2.5-4.6-2.5.4-4.4,1.9-6,3.5-.9-1.9-3.8-1.9-5.4-1.7-7.1,1.1-12.3,7.4-13.2,12.9-.3,2,0,3.5.6,4.8-.9,1.1-2.6,2.2-3.7,2.1-1.6-.2-1-2.4-.8-3.1l3.1-12.2,4-.6.4-1.7-4,.6,2-7.6-1.4.2c-3.4,6.6-5.4,8-8.7,9.1l-.3,1.3,2.2-.4-3.1,12c-.6,2.2-.4,4,.6,4.9.8.7,1.8,1,3.7.7,2.2-.4,5.2-2.4,6.8-4.3,1.5,1.8,3.9,2.5,6.1,2.2,5.1-.7,8.1-4.8,9.6-7.3l-.9-.6c-1.1,1.8-3.6,4.3-6.3,5-1.3.3-4.1.6-3.8-3.7,0-1,.3-1.7.3-1.7,10.2-2.9,12.9-7.5,12.7-9.8.6-.7,1.4-1.3,2-1.4,1.2-.2,1.1,1.1.8,2.1l-3.9,15.2,5.9-1s2.5-9.8,2.8-11c1.2-4.4,4.3-4.3,5.7-3.9l1.5-6c-2.6.4-5.5,2.7-6.7,6,0,0-.1,0-.1,0ZM63.232,16.1c.9-3.9,2.8-9.1,6-9.8,1.3-.3,1.6.7,1.6,1.1.2,2.1-1.1,5.9-7.6,8.7Z"/>
</svg>